<?xml version="1.0" encoding="UTF-8" standalone="no"?>
<!DOCTYPE svg PUBLIC "-//W3C//DTD SVG 1.1//EN" "http://www.w3.org/Graphics/SVG/1.1/DTD/svg11.dtd">
<svg width="100%" height="100%" viewBox="0 0 4532 847" version="1.1" xmlns="http://www.w3.org/2000/svg" xmlns:xlink="http://www.w3.org/1999/xlink" xml:space="preserve" xmlns:serif="http://www.serif.com/" style="fill-rule:evenodd;clip-rule:evenodd;stroke-linejoin:round;stroke-miterlimit:2;">
    <g id="logo.png" transform="matrix(1,0,0,1,64.677826,46)">
        <path d="M304.019,263.551C305.652,271.447 303.736,283.853 305.372,289.534C309.02,302.195 300.103,295.787 299.567,295.402C295.892,292.761 179.642,227.694 173.743,224.084C172.18,223.128 154.443,213.343 150.751,211.07C140.744,204.906 140.277,205.902 130.411,199.662C126.035,196.894 124.425,196.538 118.768,193.053C118.171,192.685 75.592,168.79 67.72,164.118C50.371,153.821 40.078,151.747 48.297,148.155C51.477,146.766 58.668,141.301 72.373,134.267C73.58,133.647 82.469,127.438 96.37,120.261C98.188,119.322 104.017,114.775 120.378,106.272C121.461,105.709 121.004,105.086 133.418,98.339C146.666,91.138 146.145,90.391 163.368,81.274C165.176,80.317 164.94,79.941 185.4,68.304C206.053,56.556 205.664,55.998 226.403,44.323C242.236,35.409 253.536,28.4 255.86,26.958C258.106,25.565 258.573,26.419 284.583,10.654C294.55,4.612 295.136,4.631 295.44,5.542C296.789,9.575 294.774,9.868 296.624,15.486C297.168,17.14 295.72,46.107 297.419,50.524C298.475,53.27 296.609,76.802 298.486,81.504C299.397,83.786 297.688,108.545 299.404,113.529C300.21,115.871 298.88,136.601 300.425,141.522C302.579,148.383 298.499,148.681 301.636,170.486C302.136,173.958 300.811,195.308 302.477,199.507C303.468,202.002 301.591,224.981 303.43,229.522C304.452,232.045 302.979,232.185 304.019,263.551Z" style="fill:rgb(254,254,254);fill-opacity:0.99;"/>
        <path d="M431.157,290.099C430.505,290.683 417.455,299.199 416.24,300.073C410.454,304.238 410.117,301.928 410.1,301.911C409.223,300.98 409.627,300.735 409.292,247.501C409.273,244.423 408.806,244.548 408.333,241.515C407.885,238.638 409.246,142.669 407.611,138.467C406.701,136.128 408.338,54.956 406.598,50.47C405.316,47.163 407.533,31.627 406.398,25.509C405.516,20.757 406.222,5.206 406.302,3.442C406.392,1.46 408.021,2.026 428.641,14.229C437.763,19.627 541.782,80.104 545.29,81.907C547.301,82.94 547.09,83.235 569.633,96.254C576.025,99.946 647.235,141.072 649.401,142.638C651.816,144.384 656.029,145.526 650.383,149.314C646.012,152.246 645.797,151.776 595.12,185.025C594.19,185.635 594.165,185.471 593.258,186.112C590.743,187.889 573.995,198.033 572.47,199.464C571.467,200.405 509.123,240.164 503.602,243.685C497.799,247.386 432.243,289.194 431.157,290.099Z" style="fill:rgb(254,254,254);fill-opacity:0.99;"/>
        <path d="M33.196,269.863C35.094,271.32 53.244,280.215 58.604,284.36C59.591,285.123 60.061,284.284 72.29,291.86C72.708,292.12 78.887,295.201 86.291,299.853C89.193,301.676 94.674,304.083 102.284,308.859C110.072,313.747 110.497,312.868 118.277,317.868C119.996,318.974 120.342,318.299 140.627,330.255C145.794,333.3 189.693,358.096 191.285,358.909C195.409,361.014 215.67,373.434 230.262,380.952C231.907,381.799 248.026,390.104 250.133,392.776C252.561,395.854 247.834,394.016 208.151,418.039C206.78,418.869 206.719,418.711 190.606,427.709C174.878,436.491 170.409,438.814 168.63,439.738C167.644,440.251 167.798,440.488 156.591,446.686C61.751,499.128 62.031,499.508 53.615,503.733C52.269,504.409 33.347,515.25 22.665,520.796C19.384,522.499 6.684,530.214 5.305,531.051C-1.012,534.889 4.833,512.016 2.562,505.484C2.153,504.307 2.353,504.259 2.304,317.5C2.292,275.117 3.173,275.182 3.17,271.501C3.159,258.312 -0.553,250 7.247,254.933C10.234,256.821 32.436,269.163 33.196,269.863Z" style="fill:rgb(254,254,254);fill-opacity:0.99;"/>
        <path d="M615.834,474.047C613.965,472.666 613.886,472.955 611.739,472.048C608.124,470.522 608.854,469.422 605.317,467.875C600.769,465.886 600.806,465.953 596.573,463.364C591.476,460.246 557.039,441.084 556.4,440.685C544.299,433.139 532.485,426.863 530.364,425.736C511.75,415.847 474.229,393.735 472.224,392.965C465.615,390.425 471.159,388.345 478.594,383.673C480.359,382.564 500.048,370.192 500.746,369.958C502.006,369.536 657.092,274.386 662.366,271.253C679.367,261.152 700.878,246.866 703.462,246.854C704.487,246.849 704.766,247.506 704.745,298.5C704.669,486.271 704.865,486.247 704.454,487.489C702.634,492.996 704.799,514.494 704.661,521.532C704.599,524.695 700.566,522.09 696.409,519.669C677.735,508.793 660.007,499.345 615.834,474.047Z" style="fill:rgb(254,254,254);fill-opacity:0.99;"/>
        <path d="M304.007,677.487C303.299,704.156 305.311,704.237 302.808,715.521C301.909,719.575 304.513,755.179 300.568,755.816C299,756.069 223.586,711.063 217.58,708.352C215.199,707.277 202.655,699.526 201.372,698.733C190.449,691.984 176.482,684.739 172.388,681.657C170.844,680.495 170.424,681.416 151.379,669.722C141.349,663.562 70.832,623.138 70.589,622.456C70.344,621.765 69.857,620.391 77.43,616.361C87.379,611.065 112.843,595.213 122.372,590.262C123.516,589.668 123.193,589.134 136.343,582.226C137.425,581.658 137.047,581.069 149.385,574.278C152.149,572.756 151.869,572.356 183.378,554.281C185.591,553.011 206.973,540.745 210.741,537.896C211.596,537.25 211.701,537.437 222.393,531.297C224.61,530.023 240.546,520.87 249.874,514.976C258.239,509.689 277.147,499.627 307.685,480.9C311.561,478.524 309.72,487.101 309.682,493.501C309.614,505.156 310.12,505.167 309.175,510.411C308.706,513.019 309.341,513.039 307.903,543.51C307.181,558.821 308.884,573.611 306.792,582.517C306.468,583.899 307.061,615.423 306.469,617.491C305.179,621.995 305.598,659.749 304.007,677.487Z" style="fill:rgb(254,254,254);fill-opacity:0.99;"/>
        <path d="M412.978,728.547C413.291,713.672 413.478,712.999 412.374,707.511C412.343,707.358 412.064,697.943 412.575,696.522C414.366,691.542 412.539,539.146 413.605,536.529C414.689,533.87 414.367,524.717 414.35,488.489C414.347,482.676 427.213,492.857 433.657,496.203C455.256,507.42 454.781,508.223 456.662,509.188C464.859,513.39 464.477,513.967 472.648,518.216C484.746,524.505 619.364,601.245 628.276,605.916C634.395,609.122 639.867,612.68 644.238,614.942C649.789,617.815 635.639,622.259 632.602,624.641C630.054,626.639 444.729,734.101 441.668,735.806C427.184,743.876 427.558,744.422 426.277,745.072C414.002,751.297 412.422,754.809 412.303,751.568C412.262,750.443 411.909,740.751 412.413,737.493C413.104,733.03 412.057,733.002 412.978,728.547Z" style="fill:rgb(254,254,254);fill-opacity:0.99;"/>
    </g>
    <g transform="matrix(1.383006,0,0,1.383006,-551.567585,-462.336524)">
        <g transform="matrix(737.5,0,0,737.5,1085,854)">
            <path d="M0.185,0.007C0.145,0.007 0.113,-0.006 0.088,-0.033C0.062,-0.06 0.05,-0.094 0.05,-0.137L0.05,-0.152C0.05,-0.159 0.053,-0.162 0.06,-0.162L0.077,-0.162C0.084,-0.162 0.087,-0.159 0.087,-0.152L0.087,-0.141C0.087,-0.107 0.096,-0.08 0.115,-0.059C0.133,-0.037 0.156,-0.027 0.184,-0.027C0.213,-0.027 0.236,-0.037 0.255,-0.057C0.274,-0.077 0.283,-0.103 0.283,-0.136C0.283,-0.157 0.278,-0.175 0.269,-0.191C0.259,-0.207 0.247,-0.22 0.234,-0.231C0.221,-0.242 0.197,-0.259 0.164,-0.284C0.137,-0.304 0.115,-0.321 0.1,-0.335C0.085,-0.349 0.072,-0.365 0.063,-0.384C0.054,-0.402 0.049,-0.423 0.049,-0.448C0.049,-0.49 0.061,-0.523 0.086,-0.547C0.11,-0.571 0.141,-0.583 0.18,-0.583C0.221,-0.583 0.254,-0.57 0.279,-0.543C0.304,-0.516 0.316,-0.481 0.316,-0.438L0.316,-0.42C0.316,-0.413 0.313,-0.41 0.306,-0.41L0.287,-0.41C0.28,-0.41 0.277,-0.413 0.277,-0.42L0.277,-0.436C0.277,-0.469 0.268,-0.496 0.25,-0.517C0.232,-0.538 0.209,-0.549 0.18,-0.549C0.153,-0.549 0.131,-0.54 0.114,-0.522C0.097,-0.504 0.088,-0.479 0.088,-0.446C0.088,-0.419 0.095,-0.397 0.111,-0.379C0.126,-0.361 0.153,-0.338 0.193,-0.31C0.227,-0.286 0.252,-0.267 0.269,-0.252C0.286,-0.237 0.299,-0.221 0.308,-0.204C0.317,-0.186 0.322,-0.165 0.322,-0.14C0.322,-0.096 0.309,-0.06 0.284,-0.034C0.258,-0.007 0.225,0.007 0.185,0.007Z" style="fill:white;fill-rule:nonzero;"/>
        </g>
        <g transform="matrix(737.5,0,0,737.5,1073.2,854)">
        </g>
        <g transform="matrix(737.5,0,0,737.5,1420.5625,854)">
            <path d="M0.167,-0C0.16,-0 0.157,-0.003 0.157,-0.01L0.157,-0.265C0.157,-0.268 0.157,-0.269 0.156,-0.27L0.038,-0.564L0.037,-0.568C0.037,-0.573 0.04,-0.576 0.046,-0.576L0.066,-0.576C0.071,-0.576 0.075,-0.573 0.077,-0.568L0.174,-0.316C0.175,-0.314 0.176,-0.313 0.177,-0.313C0.178,-0.313 0.179,-0.314 0.18,-0.316L0.276,-0.568C0.278,-0.573 0.282,-0.576 0.287,-0.576L0.307,-0.576C0.31,-0.576 0.313,-0.575 0.314,-0.573C0.315,-0.57 0.315,-0.567 0.314,-0.564L0.197,-0.27C0.196,-0.269 0.196,-0.268 0.196,-0.265L0.196,-0.01C0.196,-0.003 0.193,-0 0.186,-0L0.167,-0Z" style="fill:white;fill-rule:nonzero;"/>
        </g>
        <g transform="matrix(737.5,0,0,737.5,1401.3875,854)">
        </g>
        <g transform="matrix(737.5,0,0,737.5,1740.6375,854)">
            <path d="M0.31,-0.565C0.31,-0.572 0.313,-0.575 0.32,-0.575L0.339,-0.575C0.346,-0.575 0.349,-0.572 0.349,-0.565L0.349,-0.01C0.349,-0.003 0.346,-0 0.339,-0L0.318,-0C0.313,-0 0.309,-0.003 0.307,-0.008L0.114,-0.474C0.113,-0.475 0.112,-0.476 0.111,-0.476C0.11,-0.476 0.109,-0.475 0.109,-0.473L0.109,-0.01C0.109,-0.003 0.106,-0 0.099,-0L0.08,-0C0.073,-0 0.07,-0.003 0.07,-0.01L0.07,-0.565C0.07,-0.572 0.073,-0.575 0.08,-0.575L0.101,-0.575C0.106,-0.575 0.11,-0.572 0.112,-0.567L0.306,-0.099C0.307,-0.098 0.308,-0.097 0.309,-0.097C0.31,-0.097 0.311,-0.098 0.311,-0.1L0.31,-0.565Z" style="fill:white;fill-rule:nonzero;"/>
        </g>
        <g transform="matrix(737.5,0,0,737.5,1740.6375,854)">
        </g>
        <g transform="matrix(737.5,0,0,737.5,2129.3,854)">
            <path d="M0.316,-0C0.31,-0 0.306,-0.003 0.305,-0.009L0.281,-0.116C0.281,-0.117 0.281,-0.118 0.28,-0.119C0.279,-0.12 0.277,-0.12 0.276,-0.12L0.103,-0.12C0.102,-0.12 0.1,-0.12 0.1,-0.119C0.098,-0.118 0.098,-0.117 0.098,-0.116L0.074,-0.009C0.073,-0.003 0.07,-0 0.063,-0L0.044,-0C0.041,-0 0.038,-0.001 0.036,-0.003C0.035,-0.005 0.035,-0.008 0.036,-0.011L0.166,-0.567C0.167,-0.573 0.171,-0.576 0.177,-0.576L0.201,-0.576C0.207,-0.576 0.211,-0.573 0.212,-0.567L0.345,-0.011L0.346,-0.007C0.346,-0.002 0.343,-0 0.337,-0L0.316,-0ZM0.108,-0.157C0.107,-0.156 0.107,-0.155 0.108,-0.154C0.11,-0.153 0.111,-0.153 0.112,-0.153L0.268,-0.153C0.269,-0.153 0.271,-0.153 0.272,-0.154C0.273,-0.155 0.273,-0.156 0.272,-0.157L0.192,-0.508C0.191,-0.51 0.191,-0.511 0.19,-0.511C0.189,-0.511 0.189,-0.51 0.188,-0.508L0.108,-0.157Z" style="fill:white;fill-rule:nonzero;"/>
        </g>
        <g transform="matrix(737.5,0,0,737.5,2129.3,854)">
        </g>
        <g transform="matrix(737.5,0,0,737.5,2489.2,854)">
            <path d="M0.204,-0.578C0.243,-0.578 0.275,-0.564 0.3,-0.535C0.325,-0.506 0.337,-0.469 0.337,-0.422C0.337,-0.377 0.325,-0.34 0.3,-0.312C0.276,-0.284 0.244,-0.27 0.205,-0.27L0.108,-0.27C0.105,-0.27 0.104,-0.269 0.104,-0.266L0.104,-0.01C0.104,-0.003 0.101,-0 0.094,-0L0.075,-0C0.068,-0 0.065,-0.003 0.065,-0.01L0.065,-0.568C0.065,-0.575 0.068,-0.578 0.075,-0.578L0.204,-0.578ZM0.2,-0.303C0.229,-0.303 0.253,-0.314 0.271,-0.336C0.289,-0.357 0.298,-0.386 0.298,-0.422C0.298,-0.459 0.289,-0.488 0.271,-0.51C0.253,-0.532 0.229,-0.543 0.2,-0.543L0.108,-0.543C0.105,-0.543 0.104,-0.542 0.104,-0.539L0.104,-0.307C0.104,-0.304 0.105,-0.303 0.108,-0.303L0.2,-0.303Z" style="fill:white;fill-rule:nonzero;"/>
        </g>
        <g transform="matrix(737.5,0,0,737.5,2489.2,854)">
        </g>
        <g transform="matrix(737.5,0,0,737.5,2840.9875,854)">
            <path d="M0.185,0.007C0.145,0.007 0.113,-0.006 0.088,-0.033C0.062,-0.06 0.05,-0.094 0.05,-0.137L0.05,-0.152C0.05,-0.159 0.053,-0.162 0.06,-0.162L0.077,-0.162C0.084,-0.162 0.087,-0.159 0.087,-0.152L0.087,-0.141C0.087,-0.107 0.096,-0.08 0.115,-0.059C0.133,-0.037 0.156,-0.027 0.184,-0.027C0.213,-0.027 0.236,-0.037 0.255,-0.057C0.274,-0.077 0.283,-0.103 0.283,-0.136C0.283,-0.157 0.278,-0.175 0.269,-0.191C0.259,-0.207 0.247,-0.22 0.234,-0.231C0.221,-0.242 0.197,-0.259 0.164,-0.284C0.137,-0.304 0.115,-0.321 0.1,-0.335C0.085,-0.349 0.072,-0.365 0.063,-0.384C0.054,-0.402 0.049,-0.423 0.049,-0.448C0.049,-0.49 0.061,-0.523 0.086,-0.547C0.11,-0.571 0.141,-0.583 0.18,-0.583C0.221,-0.583 0.254,-0.57 0.279,-0.543C0.304,-0.516 0.316,-0.481 0.316,-0.438L0.316,-0.42C0.316,-0.413 0.313,-0.41 0.306,-0.41L0.287,-0.41C0.28,-0.41 0.277,-0.413 0.277,-0.42L0.277,-0.436C0.277,-0.469 0.268,-0.496 0.25,-0.517C0.232,-0.538 0.209,-0.549 0.18,-0.549C0.153,-0.549 0.131,-0.54 0.114,-0.522C0.097,-0.504 0.088,-0.479 0.088,-0.446C0.088,-0.419 0.095,-0.397 0.111,-0.379C0.126,-0.361 0.153,-0.338 0.193,-0.31C0.227,-0.286 0.252,-0.267 0.269,-0.252C0.286,-0.237 0.299,-0.221 0.308,-0.204C0.317,-0.186 0.322,-0.165 0.322,-0.14C0.322,-0.096 0.309,-0.06 0.284,-0.034C0.258,-0.007 0.225,0.007 0.185,0.007Z" style="fill:white;fill-rule:nonzero;"/>
        </g>
        <g transform="matrix(737.5,0,0,737.5,2840.9875,854)">
        </g>
        <g transform="matrix(737.5,0,0,737.5,3188.35,854)">
            <path d="M0.08,-0C0.073,-0 0.07,-0.003 0.07,-0.01L0.07,-0.565C0.07,-0.572 0.073,-0.575 0.08,-0.575L0.099,-0.575C0.106,-0.575 0.109,-0.572 0.109,-0.565L0.109,-0.01C0.109,-0.003 0.106,-0 0.099,-0L0.08,-0Z" style="fill:white;fill-rule:nonzero;"/>
        </g>
        <g transform="matrix(737.5,0,0,737.5,3188.35,854)">
        </g>
        <g transform="matrix(737.5,0,0,737.5,3400.0125,854)">
            <path d="M0.185,0.007C0.145,0.007 0.113,-0.006 0.088,-0.033C0.062,-0.06 0.05,-0.094 0.05,-0.137L0.05,-0.152C0.05,-0.159 0.053,-0.162 0.06,-0.162L0.077,-0.162C0.084,-0.162 0.087,-0.159 0.087,-0.152L0.087,-0.141C0.087,-0.107 0.096,-0.08 0.115,-0.059C0.133,-0.037 0.156,-0.027 0.184,-0.027C0.213,-0.027 0.236,-0.037 0.255,-0.057C0.274,-0.077 0.283,-0.103 0.283,-0.136C0.283,-0.157 0.278,-0.175 0.269,-0.191C0.259,-0.207 0.247,-0.22 0.234,-0.231C0.221,-0.242 0.197,-0.259 0.164,-0.284C0.137,-0.304 0.115,-0.321 0.1,-0.335C0.085,-0.349 0.072,-0.365 0.063,-0.384C0.054,-0.402 0.049,-0.423 0.049,-0.448C0.049,-0.49 0.061,-0.523 0.086,-0.547C0.11,-0.571 0.141,-0.583 0.18,-0.583C0.221,-0.583 0.254,-0.57 0.279,-0.543C0.304,-0.516 0.316,-0.481 0.316,-0.438L0.316,-0.42C0.316,-0.413 0.313,-0.41 0.306,-0.41L0.287,-0.41C0.28,-0.41 0.277,-0.413 0.277,-0.42L0.277,-0.436C0.277,-0.469 0.268,-0.496 0.25,-0.517C0.232,-0.538 0.209,-0.549 0.18,-0.549C0.153,-0.549 0.131,-0.54 0.114,-0.522C0.097,-0.504 0.088,-0.479 0.088,-0.446C0.088,-0.419 0.095,-0.397 0.111,-0.379C0.126,-0.361 0.153,-0.338 0.193,-0.31C0.227,-0.286 0.252,-0.267 0.269,-0.252C0.286,-0.237 0.299,-0.221 0.308,-0.204C0.317,-0.186 0.322,-0.165 0.322,-0.14C0.322,-0.096 0.309,-0.06 0.284,-0.034C0.258,-0.007 0.225,0.007 0.185,0.007Z" style="fill:white;fill-rule:nonzero;"/>
        </g>
        <g transform="matrix(737.5,0,0,737.5,3400.0125,854)">
        </g>
        <g transform="matrix(737.5,0,0,737.5,3747.375,854)">
        </g>
    </g>
</svg>
