<svg xmlns="http://www.w3.org/2000/svg" xmlns:xlink="http://www.w3.org/1999/xlink" width="1024" zoomAndPan="magnify" viewBox="0 0 768 767.999994" height="1024" preserveAspectRatio="xMidYMid meet" version="1.0"><defs><g/><clipPath id="f27241d657"><path d="M 97.929688 59.808594 L 691.179688 59.808594 L 691.179688 708.558594 L 97.929688 708.558594 Z M 97.929688 59.808594 " clip-rule="nonzero"/></clipPath></defs><g fill="#000000" fill-opacity="1"><g transform="translate(383.999984, 411.200008)"><g><path d="M 3.671875 0.140625 C 3.160156 0.140625 2.753906 -0.00390625 2.453125 -0.296875 C 2.148438 -0.585938 2 -0.976562 2 -1.46875 C 2 -1.9375 2.148438 -2.320312 2.453125 -2.625 C 2.753906 -2.9375 3.160156 -3.09375 3.671875 -3.09375 C 4.203125 -3.09375 4.617188 -2.945312 4.921875 -2.65625 C 5.222656 -2.363281 5.375 -1.972656 5.375 -1.484375 C 5.375 -1.003906 5.21875 -0.613281 4.90625 -0.3125 C 4.601562 -0.0078125 4.191406 0.140625 3.671875 0.140625 Z M 3.671875 0.140625 "/></g></g></g><g clip-path="url(#f27241d657)"><path fill="#000000" d="M 682.710938 362.257812 C 679.058594 360.058594 675.019531 358.882812 670.867188 358.082031 C 661.667969 356.3125 652.472656 356.574219 643.253906 357.898438 C 636.535156 358.867188 629.847656 360.019531 623.128906 360.972656 C 618.117188 361.679688 613.089844 362.03125 608.046875 361.546875 C 605.382812 361.289062 602.796875 360.804688 600.394531 359.554688 C 598.605469 358.625 598.511719 358.15625 599.816406 356.648438 C 601.136719 355.121094 602.664062 353.816406 604.265625 352.605469 C 608.34375 349.53125 612.441406 346.476562 616.535156 343.421875 C 624.261719 337.664062 631.898438 331.777344 638.878906 325.105469 C 644.558594 319.6875 649.828125 313.929688 654.164062 307.351562 C 656.640625 303.609375 658.746094 299.675781 660.050781 295.371094 C 661.167969 291.664062 661.558594 287.882812 660.851562 284.0625 C 659.101562 274.617188 651.09375 267.96875 641.167969 267.667969 C 635.769531 267.5 630.835938 269.085938 626.179688 271.695312 C 621.972656 274.058594 618.304688 277.113281 614.84375 280.429688 C 611.398438 283.746094 608.195312 287.324219 605.046875 290.921875 C 599.761719 296.957031 594.566406 303.066406 589.015625 308.863281 C 580.378906 317.898438 571.273438 326.429688 561.085938 333.734375 C 556.617188 336.9375 551.925781 339.804688 546.898438 342.0625 C 545.464844 342.695312 543.996094 343.121094 542.414062 343.234375 C 536.398438 343.605469 530.535156 342.9375 524.816406 341.019531 C 523.253906 340.496094 521.914062 339.675781 520.703125 338.539062 C 515.488281 333.621094 512.660156 327.511719 511.632812 320.503906 C 510.125 310.316406 511.316406 300.382812 514.558594 290.660156 C 518.5625 278.679688 525.542969 268.601562 534.332031 259.675781 C 545.410156 248.425781 558.371094 239.890625 572.742188 233.5 C 579.949219 230.296875 587.246094 227.296875 594.472656 224.109375 C 600.28125 221.558594 605.886719 218.613281 611.042969 214.851562 C 612.234375 213.976562 613.316406 212.953125 614.917969 212.765625 C 615.679688 212.691406 616.257812 212.019531 616.851562 211.515625 C 619.21875 209.484375 621.46875 207.382812 623.613281 205.109375 C 625.25 203.355469 626.8125 201.550781 628.0625 199.5 C 632.511719 192.289062 630.5 183.703125 623.3125 179.210938 C 620.6875 177.574219 617.800781 176.695312 614.75 176.285156 C 609.105469 175.523438 603.671875 176.453125 598.289062 178.09375 C 591.941406 180.050781 586.09375 183.066406 580.339844 186.328125 C 579.6875 186.703125 579.074219 187.203125 578.070312 187.371094 C 578.367188 186.367188 578.945312 185.824219 579.390625 185.210938 C 585.292969 177.238281 590.675781 168.945312 595.253906 160.152344 C 597.527344 155.773438 599.480469 151.265625 600.636719 146.460938 C 601.769531 141.726562 602.050781 136.996094 600.839844 132.246094 C 598.417969 122.6875 590.433594 117.191406 580.65625 118.328125 C 574.550781 119.035156 569.300781 121.71875 564.515625 125.40625 C 560.230469 128.703125 556.621094 132.671875 553.359375 136.957031 C 549.339844 142.210938 545.949219 147.875 542.730469 153.632812 C 537.886719 162.332031 533.511719 171.292969 529.0625 180.199219 C 523.867188 190.613281 518.65625 201.027344 512.769531 211.089844 C 511.785156 212.765625 510.757812 214.40625 509.4375 215.859375 C 504.96875 220.8125 500.332031 225.601562 495.398438 230.074219 C 493.574219 231.730469 491.601562 233.183594 489.460938 234.433594 C 477.171875 241.660156 463.859375 245.796875 449.726562 247.304688 C 448.496094 247.4375 447.269531 247.363281 446.074219 246.988281 C 444.847656 246.597656 443.582031 246.28125 442.351562 245.871094 C 421.851562 239.296875 407.703125 219.882812 407.683594 198.328125 C 407.683594 191.210938 409.414062 184.503906 412.132812 177.980469 C 414.332031 172.710938 417.066406 167.714844 420.007812 162.855469 C 424.328125 155.71875 429.1875 148.917969 433.84375 142.007812 C 439.429688 133.753906 444.734375 125.332031 449.261719 116.425781 C 452.519531 110 455.3125 103.402344 457.136719 96.417969 C 458.550781 90.996094 459.222656 85.5 458.496094 79.894531 C 457.992188 76.054688 456.839844 72.441406 454.753906 69.160156 C 449.6875 61.132812 440.730469 58.019531 431.796875 61.207031 C 427.644531 62.679688 424.066406 65.082031 420.789062 67.96875 C 417.085938 71.230469 413.921875 74.972656 411.035156 78.980469 C 407.179688 84.34375 403.902344 90.082031 401.035156 96.046875 C 397.890625 102.566406 394.890625 109.160156 391.78125 115.71875 C 390.199219 119.054688 388.488281 122.3125 386.4375 125.386719 C 384.742188 127.921875 382.824219 130.269531 380.441406 132.207031 C 376.066406 135.746094 371.152344 136.828125 365.695312 135.46875 C 363.109375 134.816406 360.6875 133.734375 358.378906 132.410156 C 355.046875 130.511719 352.011719 128.203125 349.144531 125.6875 C 344.710938 121.792969 340.710938 117.46875 336.800781 113.09375 C 335.757812 111.917969 334.957031 110.632812 334.304688 109.199219 C 331.4375 102.863281 327.9375 96.921875 323.5625 91.5 C 320.992188 88.3125 318.140625 85.40625 314.808594 83.023438 C 311.625 80.730469 308.164062 79.035156 304.253906 78.347656 C 296.675781 77.003906 289.804688 80.582031 286.582031 87.585938 C 285.761719 89.355469 285.242188 91.21875 284.960938 93.15625 C 284.179688 98.859375 285.429688 104.222656 287.570312 109.441406 C 289.691406 114.5625 292.671875 119.164062 295.984375 123.582031 C 299.617188 128.386719 303.636719 132.859375 307.679688 137.3125 C 311.679688 141.726562 315.648438 146.144531 319.371094 150.800781 C 324.863281 157.710938 329.667969 165.050781 333.316406 173.136719 C 337.730469 182.902344 340.503906 193.074219 340.800781 203.859375 C 341.378906 224.578125 330.300781 248.144531 314.234375 261.671875 C 313.097656 262.640625 311.847656 263.441406 310.507812 264.109375 C 307.773438 265.453125 304.980469 266.625 302.054688 267.484375 C 295.761719 269.347656 289.429688 269.347656 283.101562 267.632812 C 280.828125 267.015625 278.761719 265.992188 276.882812 264.558594 C 272.65625 261.296875 269.023438 257.441406 265.988281 253.042969 C 262.285156 247.699219 259.472656 241.886719 257.125 235.828125 C 254.109375 228.023438 252.042969 219.9375 250.125 211.816406 C 248.246094 203.824219 246.4375 195.792969 243.871094 187.988281 C 240.519531 177.796875 236.070312 168.125 229.71875 159.40625 C 227 155.679688 223.984375 152.234375 220.390625 149.328125 C 217.335938 146.871094 213.984375 144.949219 210.132812 144.019531 C 203.296875 142.378906 196.820312 144.78125 192.703125 150.484375 C 191.324219 152.382812 190.339844 154.488281 189.613281 156.726562 C 188.550781 160.023438 188.105469 163.414062 188.050781 166.859375 C 187.9375 174.648438 189.484375 182.175781 191.679688 189.570312 C 194.902344 200.339844 199.519531 210.53125 204.640625 220.496094 C 208.308594 227.632812 212.21875 234.636719 216.3125 241.550781 C 217.597656 243.730469 218.136719 246.09375 218.492188 248.535156 C 218.601562 249.355469 218.304688 249.785156 217.449219 249.746094 C 216.667969 249.710938 215.902344 249.691406 215.121094 249.597656 C 212.085938 249.28125 209.109375 248.683594 206.164062 247.976562 C 194.082031 245.070312 182.332031 241.046875 170.640625 236.855469 C 164.441406 234.617188 158.238281 232.347656 152.019531 230.167969 C 148.109375 228.789062 144.125 227.667969 140.011719 227.09375 C 136.847656 226.644531 133.699219 226.550781 130.570312 227.335938 C 124.296875 228.898438 120.460938 233.875 120.515625 240.355469 C 120.535156 243.261719 121.355469 245.964844 122.621094 248.554688 C 124.257812 251.90625 126.511719 254.8125 129.101562 257.460938 C 133.660156 262.136719 138.96875 265.804688 144.683594 268.898438 C 152.449219 273.128906 160.714844 276.128906 169.167969 278.566406 C 179.929688 281.699219 190.898438 283.839844 201.808594 286.320312 C 205.773438 287.210938 209.851562 287.789062 213.652344 289.28125 C 221.898438 292.503906 229.960938 296.175781 237.726562 300.496094 C 239.160156 301.296875 240.386719 302.320312 241.488281 303.515625 C 247.089844 309.644531 251.113281 316.667969 252.992188 324.789062 C 255.691406 336.472656 253.644531 347.148438 245.730469 356.425781 C 244.800781 357.523438 243.738281 358.457031 242.492188 359.183594 C 239.585938 360.878906 236.683594 362.574219 233.777344 364.25 C 213.894531 375.820312 183.878906 379.65625 158.761719 368.609375 C 153.734375 366.390625 148.726562 364.121094 143.734375 361.828125 C 138.558594 359.441406 133.34375 357.1875 127.871094 355.566406 C 123.382812 354.226562 118.839844 353.296875 114.128906 353.445312 C 111.113281 353.539062 108.226562 354.113281 105.527344 355.53125 C 99.90625 358.472656 97.222656 364.378906 98.65625 370.566406 C 99.273438 373.191406 100.480469 375.539062 102.121094 377.664062 C 104.726562 381.074219 108.078125 383.570312 111.914062 385.433594 C 112.84375 385.878906 113.777344 386.308594 114.578125 386.996094 C 121.820312 393.203125 129.769531 398.417969 137.90625 403.335938 C 141.128906 405.273438 144.347656 407.191406 147.402344 409.371094 C 148.351562 410.042969 149.226562 410.808594 150.121094 411.550781 C 150.808594 412.128906 150.792969 412.726562 150.195312 413.378906 C 149.132812 414.535156 147.90625 415.484375 146.621094 416.339844 C 143.511719 418.445312 140.179688 420.179688 136.789062 421.78125 C 131.351562 424.371094 125.898438 426.867188 120.460938 429.476562 C 116.363281 431.429688 112.417969 433.628906 108.769531 436.351562 C 105.957031 438.457031 103.40625 440.820312 101.355469 443.691406 C 99.886719 445.777344 98.769531 448.011719 98.230469 450.527344 C 97.039062 456.152344 99.496094 461.109375 104.390625 463.4375 C 106.160156 464.796875 108.265625 465.730469 110.425781 466.289062 C 116.8125 467.890625 123.441406 466.625 129.640625 464.667969 C 130.550781 464.445312 131.445312 464.183594 132.339844 463.921875 C 139.472656 461.761719 146.285156 458.800781 153.0625 455.726562 C 165.074219 450.285156 176.914062 444.433594 189.015625 439.199219 C 198.234375 435.230469 207.542969 431.542969 217.28125 429.027344 C 225.214844 426.980469 233.238281 425.710938 241.449219 425.953125 C 251.355469 426.253906 260.609375 428.75 268.929688 434.28125 C 274.851562 438.210938 279.285156 443.390625 281.984375 450.023438 C 282.691406 451.792969 283.046875 453.601562 283.046875 455.5 C 283.046875 460.550781 282.894531 465.601562 282.597656 470.628906 C 282.28125 475.863281 281.519531 481.042969 280.328125 486.167969 C 278.652344 493.320312 275.300781 499.5625 270.308594 504.964844 C 266.957031 508.582031 263.195312 511.746094 259.230469 514.671875 C 253.496094 518.902344 247.40625 522.589844 241.261719 526.167969 C 234.335938 530.191406 227.390625 534.214844 220.632812 538.519531 C 214.246094 542.582031 208.007812 546.882812 202.347656 551.933594 C 199.015625 554.914062 195.886719 558.082031 193.316406 561.789062 C 191.457031 564.472656 189.96875 567.339844 189.464844 570.601562 C 188.625 576.058594 190.488281 580.402344 195.011719 583.550781 C 197.285156 585.132812 199.855469 585.972656 202.570312 586.398438 C 208.121094 587.292969 213.519531 586.457031 218.863281 584.929688 C 225.734375 582.933594 232.101562 579.785156 238.339844 576.320312 C 241.113281 574.773438 243.886719 573.265625 246.867188 572.167969 C 251.113281 570.601562 255.359375 569.054688 259.585938 567.414062 C 262.191406 566.410156 264.871094 566.277344 267.589844 566.277344 C 270.308594 566.277344 269.398438 566.578125 269.546875 568.085938 C 269.730469 569.96875 269.546875 571.832031 269.265625 573.695312 C 268.242188 580.234375 266.304688 586.546875 264.3125 592.847656 C 261.894531 600.484375 259.195312 608.046875 257.332031 615.875 C 255.992188 621.5 255.023438 627.164062 255.527344 632.976562 C 255.824219 636.515625 256.734375 639.851562 258.765625 642.8125 C 262.171875 647.789062 267.832031 649.632812 273.4375 647.394531 C 276.601562 646.128906 279.675781 644.601562 282.730469 643.074219 C 284.480469 642.21875 285.96875 640.929688 287.363281 639.570312 C 289.375 637.613281 291.050781 635.417969 292.523438 633.03125 C 294.496094 629.828125 296.042969 626.417969 297.363281 622.898438 C 300.566406 614.308594 302.464844 605.382812 304.066406 596.40625 C 306.730469 581.554688 308.496094 566.578125 310.285156 551.617188 C 311.382812 542.433594 312.78125 533.285156 315.199219 524.324219 C 319.613281 507.964844 329.238281 495.726562 343.910156 487.359375 C 348.769531 484.601562 353.78125 482.144531 359.160156 480.710938 C 366.609375 478.714844 374.148438 477.335938 381.933594 478.847656 C 386.886719 479.796875 391.839844 480.652344 396.753906 481.808594 C 407.792969 484.417969 416.992188 490.117188 425.019531 497.960938 C 431.535156 504.332031 437.007812 511.503906 442.089844 519.03125 C 444.195312 522.160156 446.039062 525.386719 447.546875 528.851562 C 451.214844 537.234375 455.589844 545.207031 461.417969 552.34375 C 465.609375 557.464844 470.335938 562.050781 475.289062 566.429688 C 481.25 571.683594 487.316406 576.84375 493.292969 582.097656 C 498.972656 587.109375 504.316406 592.453125 509.269531 598.210938 C 520.347656 611.105469 528.132812 625.804688 533.644531 641.824219 C 535.335938 646.742188 536.828125 651.664062 536.921875 656.917969 C 536.921875 657.941406 537.144531 658.964844 537.238281 660.007812 C 538.464844 674.1875 543.976562 686.332031 554.308594 696.207031 C 558.890625 700.585938 563.972656 704.199219 569.96875 706.417969 C 582.128906 710.90625 594.828125 707.589844 603.148438 697.660156 C 609.832031 689.6875 612.160156 680.355469 611.230469 670.125 C 610.988281 667.5 610.429688 664.648438 609.574219 661.6875 C 609.03125 660.4375 608.4375 659.207031 607.75 657.996094 C 603.746094 650.992188 598.289062 644.84375 592.273438 639.515625 C 589.203125 636.796875 586.019531 634.28125 582.464844 632.230469 C 578.945312 630.199219 575.035156 628.335938 572.222656 625.320312 C 569.894531 622.804688 569.09375 619.765625 569.523438 616.992188 C 569.316406 614.234375 570.210938 611.308594 572.035156 609.425781 C 575.445312 605.867188 581.269531 605.140625 585.925781 605.683594 C 591.027344 606.261719 595.664062 608.609375 599.945312 611.363281 C 603.503906 612.707031 607.003906 614.179688 610.484375 615.722656 C 614.917969 617.679688 619.367188 619.617188 623.984375 621.144531 C 631.691406 623.679688 639.570312 624.871094 647.6875 624.070312 C 655.375 623.308594 662.507812 620.976562 668.6875 616.246094 C 677.308594 609.632812 681.761719 600.855469 681.667969 589.957031 C 681.574219 580.101562 677.699219 571.699219 671 564.640625 C 664.777344 558.082031 657.089844 554.800781 648.171875 554.558594 C 644.835938 555.082031 641.542969 555.902344 638.300781 556.832031 C 628.378906 559.703125 618.769531 563.78125 608.511719 565.382812 C 570.640625 571.273438 532.191406 554.46875 505.75 527.675781 C 492.476562 514.226562 484.042969 498.277344 479.367188 480.019531 C 477.1875 471.488281 475.234375 462.785156 475.867188 453.917969 C 476.035156 451.441406 476.351562 448.980469 476.816406 446.539062 C 476.890625 445.570312 476.984375 444.601562 477.097656 443.632812 C 477.617188 438.996094 478.289062 434.375 480.113281 430.035156 C 484.433594 419.769531 490.726562 410.957031 499.496094 404.007812 C 511.820312 394.246094 526.007812 389.402344 541.554688 388.375 C 552.316406 387.667969 563.003906 388.636719 573.65625 390.128906 C 586.242188 391.878906 598.53125 394.914062 610.765625 398.25 C 618.9375 400.46875 627.113281 402.722656 635.472656 404.136719 C 642.527344 405.328125 649.605469 405.945312 656.699219 404.679688 C 661.855469 403.765625 666.9375 402.386719 671.855469 400.617188 C 678.464844 398.230469 683.695312 393.816406 687.644531 387.949219 C 688.945312 386.011719 689.914062 383.886719 690.511719 381.613281 C 692.613281 373.789062 689.65625 366.429688 682.710938 362.257812 Z M 676.808594 382.9375 C 676.082031 384.015625 675.207031 384.96875 674.273438 385.859375 C 668.914062 391.078125 662.414062 393.816406 655.042969 394.5625 C 648.078125 395.269531 641.242188 394.28125 634.449219 392.753906 C 625.210938 390.707031 616.238281 387.78125 607.226562 385.003906 C 594.84375 381.183594 582.371094 377.851562 569.503906 376.097656 C 559.746094 374.777344 549.972656 374.050781 540.105469 374.664062 C 530.140625 375.296875 520.757812 377.886719 511.953125 382.636719 C 509.625 383.90625 507.277344 385.152344 504.914062 386.328125 C 486.273438 395.566406 474.320312 410.378906 468.476562 430.203125 C 467.023438 435.15625 465.382812 440.074219 464.304688 445.144531 C 461.847656 456.75 462.441406 468.300781 465.214844 479.777344 C 467.675781 489.914062 471.714844 499.433594 477.132812 508.320312 C 492.734375 533.878906 513.832031 553.648438 540.382812 567.472656 C 551.609375 573.300781 563.527344 577.121094 576.167969 578.40625 C 579.261719 578.722656 582.351562 578.890625 585.460938 578.890625 C 591.289062 578.835938 597.078125 578.277344 602.8125 577.214844 C 606.054688 576.617188 609.292969 576.042969 612.589844 575.707031 C 612.738281 575.707031 612.867188 575.667969 613.015625 575.648438 C 615.140625 575.074219 617.261719 574.4375 619.367188 573.730469 C 625.9375 571.53125 632.308594 568.8125 639.160156 567.546875 C 640.183594 567.359375 641.226562 567.210938 642.285156 567.078125 C 643.8125 566.726562 645.359375 566.464844 646.941406 566.351562 C 649.714844 566.148438 652.359375 566.503906 654.816406 567.453125 C 662.859375 569.019531 669.84375 573.488281 671.707031 582.597656 C 674.089844 594.242188 668.355469 606.558594 656.773438 610.285156 C 655.320312 610.75 653.8125 611.085938 652.304688 611.289062 C 651.054688 611.644531 649.789062 611.90625 648.582031 612.074219 C 639.046875 613.433594 628.414062 610.730469 619.496094 607.394531 C 610 603.839844 601.230469 598.285156 591.269531 595.996094 C 582.628906 594.019531 572.632812 595.027344 565.519531 600.726562 C 559.617188 605.457031 557.476562 613.023438 559.039062 620.289062 C 560.808594 628.597656 566.207031 635.007812 572.390625 640.519531 C 578.8125 645.382812 585.589844 649.816406 590.542969 656.375 C 592.164062 658.519531 593.355469 660.828125 594.136719 663.195312 C 596.949219 670.21875 597.84375 678.789062 593.875 685.308594 C 591.417969 689.351562 587.285156 692.238281 582.945312 692.949219 C 580.285156 693.933594 577.378906 694.175781 574.476562 693.785156 C 571.550781 693.75 568.609375 692.964844 565.78125 691.4375 C 559.578125 688.085938 555.78125 682.683594 553.285156 676.292969 C 549.46875 667.832031 548 658.089844 546.472656 649.203125 C 545.78125 645.179688 545.207031 641.117188 544.648438 637.039062 C 544.496094 636.328125 544.367188 635.621094 544.21875 634.914062 C 543.34375 630.925781 542.226562 627.015625 540.828125 623.175781 C 534.683594 606.425781 525.433594 591.746094 512.175781 579.691406 C 504.855469 573.042969 497.597656 566.316406 490.316406 559.609375 C 479.292969 549.457031 469.910156 537.996094 462.386719 525.011719 C 458.792969 518.808594 455.125 512.625 451.101562 506.660156 C 445.648438 498.574219 439.371094 491.214844 431.960938 484.84375 C 427.773438 481.25 423.304688 478.082031 418.464844 475.4375 C 412.152344 471.953125 405.410156 469.808594 398.261719 469.027344 C 394.59375 468.617188 391 467.761719 387.371094 467.164062 C 379.679688 465.898438 371.933594 465.933594 364.167969 466.027344 C 349.179688 466.195312 336.390625 471.898438 324.882812 481.042969 C 313.597656 490.023438 306.226562 501.667969 301.945312 515.378906 C 298.984375 524.882812 297.402344 534.644531 296.265625 544.480469 C 294.570312 559.144531 293.378906 573.84375 291.609375 588.488281 C 290.546875 597.28125 289.488281 606.09375 287.273438 614.699219 C 286.246094 618.648438 285 622.523438 283.195312 626.214844 C 281.816406 629.027344 280.175781 631.632812 277.867188 633.796875 C 275.449219 636.070312 272.636719 637.28125 269.265625 637.222656 C 268.242188 637.207031 267.738281 636.796875 267.535156 635.808594 C 267.011719 633.421875 267.070312 631.058594 267.386719 628.671875 C 268.054688 623.382812 269.640625 618.3125 271.332031 613.285156 C 273.847656 605.8125 276.714844 598.433594 279.078125 590.910156 C 280.8125 585.414062 282.320312 579.859375 282.914062 574.105469 C 283.195312 571.328125 283.269531 568.550781 282.710938 565.792969 C 282.503906 564.789062 282.246094 563.765625 281.910156 562.796875 C 279.542969 556.238281 274.089844 553.21875 267.3125 554.820312 C 258.914062 556.816406 250.851562 559.757812 242.976562 563.242188 C 237.183594 565.8125 231.394531 568.402344 225.585938 570.898438 C 220.929688 572.894531 216.164062 574.511719 211.136719 575.277344 C 208.753906 575.632812 206.371094 575.78125 203.988281 575.390625 C 199.910156 574.71875 199.144531 573.097656 201.175781 569.539062 C 202.21875 567.730469 203.558594 566.167969 205.011719 564.675781 C 208.699219 560.914062 212.90625 557.785156 217.320312 554.953125 C 223.144531 551.1875 229.289062 548.003906 235.453125 544.855469 C 241.953125 541.539062 248.582031 538.40625 254.96875 534.847656 C 262.785156 530.488281 270.179688 525.515625 276.824219 519.496094 C 280.492188 516.179688 283.828125 512.546875 286.730469 508.542969 C 287.234375 507.628906 287.71875 506.660156 288.148438 505.675781 C 293.640625 492.949219 295.613281 477.578125 294.847656 463.847656 C 294.085938 450.324219 289.265625 436.964844 278.316406 428.46875 C 264.351562 417.625 247.480469 414.703125 230.183594 415.835938 C 220.316406 416.472656 210.542969 417.960938 201.0625 420.832031 C 195.625 422.488281 190.339844 424.632812 184.921875 426.308594 C 178.609375 429.363281 172.371094 432.625 166.191406 435.957031 C 157.308594 440.726562 148.519531 445.703125 139.453125 450.136719 C 134.628906 452.503906 129.734375 454.699219 124.519531 456.078125 C 122.433594 456.621094 120.332031 457.03125 118.171875 456.917969 C 115.582031 456.878906 113.21875 456.023438 111.710938 453.898438 C 107.148438 447.492188 114.09375 441.902344 120.496094 440.410156 C 127.777344 436.109375 135.96875 432.976562 143.511719 429.492188 C 147.664062 427.574219 151.628906 425.5625 155.445312 423.363281 C 156.824219 422.300781 158.128906 421.164062 159.246094 419.84375 C 163.398438 414.925781 163.507812 409.316406 159.5625 404.25 C 157.996094 402.238281 156.097656 400.578125 154.105469 399.03125 C 148.074219 394.394531 141.554688 390.574219 134.535156 387.667969 C 126.566406 384.371094 119.585938 379.507812 112.917969 374.105469 C 111.578125 373.023438 110.59375 371.703125 110.183594 369.988281 C 109.585938 367.472656 110.292969 366.429688 112.828125 366.1875 C 114.316406 366.039062 115.789062 366.1875 117.257812 366.484375 C 120.515625 367.117188 123.605469 368.273438 126.625 369.597656 C 131.371094 371.664062 135.933594 374.125 140.511719 376.507812 C 147.570312 380.199219 154.71875 383.664062 162.335938 386.066406 C 178.871094 391.28125 195.644531 391.75 212.589844 388.617188 C 225.511719 386.214844 237.335938 381.242188 247.816406 373.230469 C 248.226562 372.914062 248.65625 372.613281 249.082031 372.335938 C 259.25 365.683594 265.019531 356.144531 267.347656 344.390625 C 268.894531 336.601562 268.707031 328.816406 266.957031 321.082031 C 264.3125 309.382812 257.777344 300.328125 247.910156 293.753906 C 237.019531 286.484375 225.621094 280.1875 213.054688 276.109375 C 202.722656 272.753906 192.238281 269.867188 181.8125 266.867188 C 174.71875 264.820312 167.679688 262.695312 160.828125 259.917969 C 155.054688 257.570312 149.488281 254.851562 144.386719 251.257812 C 141.574219 249.28125 138.949219 247.082031 136.753906 244.417969 C 135.933594 243.414062 135.167969 242.371094 134.667969 241.15625 C 134.238281 240.097656 134.425781 239.78125 135.597656 239.648438 C 137.164062 239.5 138.707031 239.648438 140.234375 239.945312 C 143.679688 240.542969 147.03125 241.566406 150.34375 242.667969 C 158.574219 245.40625 166.597656 248.703125 174.734375 251.648438 C 183.617188 254.871094 192.425781 258.28125 201.492188 260.945312 C 205.589844 262.136719 209.742188 263.140625 214.003906 263.625 C 216.722656 263.925781 219.421875 264.019531 222.121094 263.441406 C 226.421875 262.546875 229.53125 259.992188 230.984375 256.621094 C 230.984375 255.726562 230.984375 254.832031 230.949219 253.957031 C 230.949219 253.585938 230.890625 253.210938 230.875 252.839844 C 230.742188 252.375 230.613281 251.90625 230.464844 251.460938 C 229.011719 246.933594 227.054688 242.703125 224.914062 238.457031 C 220.539062 229.757812 215.960938 221.167969 211.714844 212.394531 C 207.765625 204.25 205.457031 195.160156 203.222656 186.402344 C 202.199219 182.378906 201.4375 178.074219 201.304688 173.808594 C 201.101562 172.113281 201.027344 170.4375 201.175781 168.777344 C 200.859375 165.835938 201.175781 162.984375 202.796875 160.433594 C 204.003906 158.570312 205.773438 157.695312 207.671875 157.730469 C 212.589844 156.816406 216.332031 160.972656 218.695312 164.71875 C 221.824219 169.671875 224.523438 175.300781 226.980469 180.609375 C 233.070312 193.800781 236.328125 207.699219 239.402344 221.78125 C 243.851562 235.34375 247.539062 249.261719 254.816406 261.578125 C 259.398438 269.328125 265.523438 275.828125 273.679688 279.796875 C 274.574219 280.226562 275.484375 280.636719 276.378906 281.007812 C 288.183594 283.878906 301.328125 282.425781 312.59375 278.921875 C 319.574219 276.761719 325.832031 273.351562 331.621094 269.234375 C 335.738281 265.136719 339.3125 260.570312 342.421875 255.597656 C 350.445312 242.761719 355.417969 228.878906 356.574219 213.714844 C 357.523438 201.046875 355.417969 188.824219 351.171875 176.921875 C 345.53125 161.121094 336.722656 147.355469 324.9375 135.429688 C 320.617188 131.050781 316.074219 126.914062 311.605469 122.707031 C 308.644531 119.910156 305.722656 117.058594 303.078125 113.949219 C 301.070312 111.582031 299.226562 109.085938 297.753906 106.328125 C 296.617188 104.207031 295.726562 101.988281 295.257812 99.621094 C 294.925781 97.964844 294.847656 96.269531 295.183594 94.609375 C 296.023438 90.476562 298.871094 88.761719 302.929688 89.898438 C 305.203125 90.53125 307.210938 91.703125 309.113281 93.082031 C 313.023438 95.878906 316.375 99.304688 319.519531 102.9375 C 320.300781 103.832031 320.65625 104.949219 321.121094 106.03125 C 325.292969 115.941406 330.730469 125.070312 337.597656 133.363281 C 341.210938 137.722656 345.253906 141.597656 349.960938 144.765625 C 354.804688 148.023438 360.015625 150.390625 365.828125 151.171875 C 375.882812 152.550781 384.445312 149.402344 391.707031 142.453125 C 395.523438 138.800781 398.464844 134.480469 401.035156 129.878906 C 403.363281 125.6875 405.335938 121.328125 407.273438 116.949219 C 409.75 111.324219 412.226562 105.695312 415.054688 100.238281 C 417.625 95.28125 420.472656 90.511719 423.9375 86.132812 C 426.191406 83.285156 428.667969 80.636719 431.609375 78.496094 C 433.078125 77.414062 434.625 76.484375 436.375 75.960938 C 438.664062 75.289062 440.25 75.867188 441.550781 77.863281 C 442.742188 79.707031 443.171875 81.792969 443.28125 83.953125 C 443.433594 86.824219 442.984375 89.636719 442.257812 92.394531 C 440.917969 97.554688 438.777344 102.417969 436.300781 107.113281 C 432.410156 114.453125 427.902344 121.382812 423.136719 128.164062 C 418.351562 135 413.453125 141.765625 408.6875 148.601562 C 404.535156 154.546875 400.71875 160.710938 397.421875 167.175781 C 393.773438 174.3125 390.980469 181.726562 389.753906 189.683594 C 387.6875 202.929688 390.125 215.449219 395.878906 227.410156 C 400.421875 236.855469 406.714844 244.882812 415.28125 250.996094 C 424.253906 257.386719 434.160156 261.113281 445.332031 260.960938 C 446.355469 260.960938 447.398438 261.019531 448.421875 261.128906 C 467.152344 263.011719 483.667969 257.402344 498.433594 246.132812 C 505.359375 240.839844 511.1875 234.433594 516.550781 227.578125 C 524.835938 216.996094 531.707031 205.5 538.113281 193.726562 C 543.082031 184.578125 547.90625 175.335938 552.859375 166.171875 C 555.929688 160.46875 559.132812 154.863281 562.800781 149.515625 C 565.257812 145.9375 567.941406 142.527344 571.066406 139.511719 C 573.359375 137.292969 575.835938 135.335938 578.738281 133.957031 C 580.453125 133.15625 582.203125 132.542969 584.136719 132.542969 C 586.074219 132.542969 587.210938 133.378906 587.917969 135.039062 C 588.570312 136.566406 588.683594 138.167969 588.589844 139.808594 C 588.457031 142.023438 587.863281 144.148438 587.082031 146.199219 C 585.832031 149.476562 584.214844 152.570312 582.445312 155.589844 C 576.542969 165.648438 569.933594 175.226562 562.613281 184.296875 C 559.410156 188.285156 556.191406 192.253906 553.007812 196.238281 C 551.441406 198.214844 549.953125 200.265625 548.722656 202.460938 C 547.925781 203.878906 547.289062 205.367188 547.046875 206.988281 C 546.324219 211.945312 549.898438 215.96875 554.90625 215.800781 C 556.542969 215.746094 558.089844 215.261719 559.578125 214.589844 C 562.019531 213.527344 564.308594 212.207031 566.582031 210.828125 C 571.664062 207.734375 576.710938 204.585938 581.8125 201.511719 C 586.632812 198.605469 591.550781 195.886719 596.761719 193.726562 C 600.300781 192.253906 603.929688 191.097656 607.746094 190.632812 C 609.890625 190.371094 612.011719 190.351562 614.097656 190.894531 C 617 191.65625 617.988281 193.425781 617.152344 196.277344 C 616.703125 197.785156 615.882812 199.109375 614.972656 200.375 C 612.214844 204.140625 608.714844 207.082031 604.824219 209.578125 C 599.238281 213.175781 593.148438 215.710938 586.988281 218.039062 C 580.152344 220.628906 573.226562 222.992188 566.507812 225.824219 C 546.808594 234.152344 529.824219 246.226562 516.101562 262.695312 C 507.410156 273.148438 501.207031 284.921875 498.230469 298.261719 C 496.238281 307.203125 495.734375 316.203125 497.671875 325.21875 C 500.332031 337.628906 507.167969 346.847656 518.710938 352.417969 C 521.707031 353.871094 524.890625 354.691406 528.207031 354.972656 C 536.546875 355.699219 544.738281 355.007812 552.710938 352.289062 C 555.59375 351.300781 558.332031 350.015625 561.011719 348.582031 C 574.269531 341.445312 586.019531 332.296875 596.855469 321.902344 C 603.761719 315.25 610.09375 308.078125 616.21875 300.703125 C 619.644531 296.566406 623.035156 292.410156 626.871094 288.628906 C 628.957031 286.578125 631.171875 284.699219 633.703125 283.226562 C 635.621094 282.109375 637.652344 281.308594 639.886719 281.066406 C 645.710938 280.46875 649.605469 284.605469 648.65625 290.398438 C 648.339844 292.335938 647.613281 294.125 646.753906 295.875 C 644.914062 299.621094 642.472656 302.957031 639.792969 306.121094 C 634.894531 311.933594 629.363281 317.078125 623.5 321.882812 C 617.953125 326.429688 612.179688 330.714844 606.40625 334.980469 C 602.980469 337.515625 599.574219 340.105469 596.203125 342.714844 C 594.417969 344.089844 592.722656 345.601562 591.15625 347.242188 C 589.632812 348.84375 588.289062 350.574219 587.324219 352.570312 C 584.789062 357.785156 585.722656 363.300781 589.816406 367.378906 C 592.109375 369.671875 594.902344 371.125 597.933594 372.1875 C 602.515625 373.789062 607.265625 374.273438 612.066406 374.292969 C 618.417969 374.328125 624.710938 373.566406 630.984375 372.691406 C 636.105469 371.980469 641.226562 371.160156 646.382812 370.734375 C 653.90625 370.101562 661.371094 370.230469 668.746094 372.113281 C 670.753906 372.632812 672.730469 373.230469 674.589844 374.160156 C 678.148438 375.949219 679.078125 379.640625 676.84375 382.953125 L 676.808594 382.953125 Z M 676.808594 382.9375 " fill-opacity="1" fill-rule="nonzero"/></g><path fill="#000000" d="M 378.691406 418.242188 C 364.652344 418.074219 351.730469 414.328125 340.46875 405.757812 C 329.203125 397.1875 321.886719 386.011719 319.613281 371.925781 C 317.007812 355.886719 321.402344 341.6875 331.789062 329.316406 C 334.957031 325.554688 338.492188 322.109375 342.21875 318.902344 C 364.261719 299.917969 398.058594 298.855469 421.292969 316.386719 C 445.277344 334.476562 450.136719 367.324219 432.335938 391.75 C 422.558594 405.164062 409.210938 413.117188 393.140625 416.714844 C 388.394531 417.773438 383.570312 418.242188 378.691406 418.242188 Z M 381.707031 319.40625 C 370.816406 319.535156 361.078125 322.164062 352.03125 327.417969 C 346.6875 330.527344 342.535156 334.703125 339.460938 340.050781 C 334.65625 348.414062 332.515625 357.300781 334.136719 366.894531 C 336.015625 377.941406 341.9375 386.511719 350.988281 392.886719 C 361.003906 399.925781 372.25 402.796875 384.410156 401.828125 C 396.976562 400.820312 407.945312 396.070312 416.84375 386.960938 C 423.230469 380.421875 427.269531 372.632812 428.128906 363.449219 C 429.320312 350.648438 424.609375 340.105469 415.148438 331.664062 C 405.523438 323.09375 393.960938 319.574219 381.707031 319.386719 Z M 381.707031 319.40625 " fill-opacity="1" fill-rule="nonzero"/></svg>